<?xml version="1.0" encoding="UTF-8" standalone="no"?>
<!-- Created with Inkscape (http://www.inkscape.org/) -->

<svg
   width="412mm"
   height="110mm"
   viewBox="0 0 412 110"
   version="1.1"
   id="SVGRoot"
   sodipodi:docname="waves.svg"
   inkscape:version="1.2.1 (9c6d41e410, 2022-07-14, custom)"
   xmlns:inkscape="http://www.inkscape.org/namespaces/inkscape"
   xmlns:sodipodi="http://sodipodi.sourceforge.net/DTD/sodipodi-0.dtd"
   xmlns="http://www.w3.org/2000/svg"
   xmlns:svg="http://www.w3.org/2000/svg">
  <sodipodi:namedview
     id="namedview11673"
     pagecolor="#ffffff"
     bordercolor="#000000"
     borderopacity="0.25"
     inkscape:showpageshadow="2"
     inkscape:pageopacity="0.0"
     inkscape:pagecheckerboard="0"
     inkscape:deskcolor="#d1d1d1"
     inkscape:document-units="mm"
     showgrid="false"
     inkscape:zoom="0.91490602"
     inkscape:cx="869.48821"
     inkscape:cy="424.63378"
     inkscape:window-width="2560"
     inkscape:window-height="1403"
     inkscape:window-x="0"
     inkscape:window-y="0"
     inkscape:window-maximized="1"
     inkscape:current-layer="g43225" />
  <defs
     id="defs11668" />
  <g
     inkscape:label="Layer 1"
     inkscape:groupmode="layer"
     id="layer1">
    <g
       style="fill:none;stroke:#000000;stroke-opacity:1"
       id="g43225"
       transform="matrix(0.19494064,0,0,0.03167337,-3.2565073,1.4192855)">
      <g
         transform="matrix(1.466719,0.11315758,-0.16711221,0.99316724,33.646762,-80.122029)"
         id="g43206"
         style="stroke:#000000;stroke-opacity:1">
        <path
           d="m 0,71.877724 c 130.90909,1.212833 261.81818,16.077422 392.72727,50.193596 130.90909,34.11617 130.90909,55.62842 261.81818,119.1252 130.9091,63.49679 130.9091,48.51438 261.81819,63.94862 130.90906,15.43424 130.90906,-21.80612 261.81816,-71.99751 C 1309.0909,182.95624 1309.0909,174.46452 1440,128.10916"
           stroke-width="1.03203"
           stroke="currentColor"
           id="path43186"
           style="stroke:#000000;stroke-opacity:1" />
        <path
           d="m 0,71.427621 c 130.90909,1.271472 261.81818,16.08975 392.72727,50.022659 130.90909,33.9329 130.90909,55.33271 261.81818,118.54077 130.9091,63.20807 130.9091,48.40376 261.81819,64.02848 130.90906,15.62472 130.90906,-21.38392 261.81816,-71.12626 C 1309.0909,183.15093 1309.0909,174.56384 1440,128.47261"
           stroke-width="0.692644"
           stroke="currentColor"
           id="path43188"
           style="stroke:#000000;stroke-opacity:1" />
        <path
           d="m 0,70.284044 c 130.90909,1.39646 261.81818,15.991992 392.72727,49.268166 130.90909,33.27617 130.90909,54.33907 261.81818,116.60798 130.9091,62.26892 130.9091,48.05859 261.81819,64.3036 130.90906,16.24502 130.90906,-20.04063 261.81816,-68.37368 C 1309.0909,183.75707 1309.0909,174.80192 1440,129.47429"
           stroke-width="1.8103"
           stroke="currentColor"
           id="path43190"
           style="stroke:#000000;stroke-opacity:1" />
        <path
           d="m 0,69.048672 c 130.90909,1.436636 261.81818,15.383442 392.72727,47.214098 130.90909,31.83066 130.90909,52.33574 261.81818,112.80445 130.9091,60.46871 130.9091,47.44466 261.81819,64.88454 130.90906,17.43987 130.90906,-17.5564 261.81816,-63.36502 C 1309.0909,184.77812 1309.0909,174.95537 1440,130.805"
           stroke-width="2.02283"
           stroke="currentColor"
           id="path43192"
           style="stroke:#000000;stroke-opacity:1" />
        <path
           d="m 0,68.657853 c 130.90909,1.150825 261.81818,13.619319 392.72727,42.714967 130.90909,29.09564 130.90909,48.83546 261.81818,106.32359 130.9091,57.48812 130.9091,46.52399 261.81819,65.96301 130.90906,19.43902 130.90906,-13.60602 261.81816,-55.64729 130.9091,-42.04128 130.9091,-53.5002 261.8182,-96.19086"
           stroke-width="0.677975"
           stroke="currentColor"
           id="path43194"
           style="stroke:#000000;stroke-opacity:1" />
        <path
           d="m 0,70.272814 c 130.90909,0.238394 261.81818,9.878844 392.72727,34.322616 130.90909,24.44378 130.90909,43.24417 261.81818,96.20461 130.9091,52.96043 130.9091,45.28416 261.81819,67.80349 130.90906,22.51932 130.90906,-7.88648 261.81816,-45.02259 130.9091,-37.13611 130.9091,-51.08376 261.8182,-92.16253"
           stroke-width="1.68816"
           stroke="currentColor"
           id="path43196"
           style="stroke:#000000;stroke-opacity:1" />
        <path
           d="m 0,75.122737 c 130.90909,-1.60195 261.81818,3.308669 392.72727,20.5506 130.90909,17.241933 130.90909,34.993763 261.81818,81.575073 130.9091,46.58131 130.9091,43.77642 261.81819,70.68046 130.90906,26.90405 130.90906,-0.4989 261.81816,-32.04432 130.9091,-31.54543 130.9091,-48.5413 261.8182,-87.87962"
           stroke-width="1.43608"
           stroke="currentColor"
           id="path43198"
           style="stroke:#000000;stroke-opacity:1" />
        <path
           d="m 0,84.318918 c 130.90909,-4.592774 261.81818,-6.742822 392.72727,0.317605 130.90909,7.060426 130.90909,23.764697 261.81818,62.042577 130.9091,38.27787 130.9091,42.14149 261.81819,74.67939 130.90906,32.53789 130.90906,7.53896 261.81816,-18.48878 130.9091,-26.02775 130.9091,-45.90908 261.8182,-83.12836"
           stroke-width="0.997154"
           stroke="currentColor"
           id="path43200"
           style="stroke:#000000;stroke-opacity:1" />
        <path
           d="m 0,98.668617 c 130.90909,-8.783764 261.81818,-20.404553 392.72727,-26.423771 130.90909,-6.019218 130.90909,9.803645 261.81818,38.219724 130.9091,28.41607 130.9091,40.54865 261.81819,78.99813 130.90906,38.44947 130.90906,14.28675 261.81816,-7.17795 130.9091,-21.4647 130.9091,-43.01434 261.8182,-77.0943"
           stroke-width="1.59333"
           stroke="currentColor"
           id="path43202"
           style="stroke:#000000;stroke-opacity:1" />
        <path
           d="M 0,118.53026 C 130.90909,104.60923 261.81818,81.634398 392.72727,60.59537 523.63636,39.556341 523.63636,54.870749 654.54545,72.802252 c 130.9091,17.931503 130.9091,38.835588 261.81819,80.944558 130.90906,42.10898 130.90906,17.60496 261.81816,-0.97376 C 1309.0909,134.19433 1309.0909,113.33246 1440,84.390335"
           stroke-width="1.14221"
           stroke="currentColor"
           id="path43204"
           style="stroke:#000000;stroke-opacity:1" />
      </g>
    </g>
  </g>
</svg>
